<?xml version="1.0" encoding="iso-8859-1"?>
<!-- Generator: Adobe Illustrator 16.0.0, SVG Export Plug-In . SVG Version: 6.00 Build 0)  -->
<!DOCTYPE svg PUBLIC "-//W3C//DTD SVG 1.1//EN" "http://www.w3.org/Graphics/SVG/1.1/DTD/svg11.dtd">
<svg version="1.1" id="Capa_1" xmlns="http://www.w3.org/2000/svg" xmlns:xlink="http://www.w3.org/1999/xlink" x="0px" y="0px"
	 width="500.948px" height="500.949px" viewBox="0 0 500.948 500.949" style="enable-background:new 0 0 500.948 500.949;"
	 xml:space="preserve">
<g>
	<g>
		<path d="M490.779,19.074c-1.174-2.404-2.348-4.811-3.521-7.215c-3.988,2.062-7.865,4.352-11.676,6.723
			c-2.17,1.35-4.314,2.74-6.439,4.156l-2.803,1.896c-0.859-1.305-1.719-2.607-2.578-3.91l2.77-1.709
			c2.291-1.395,4.604-2.76,6.939-4.08c3.986-2.252,8.035-4.418,12.188-6.348c-0.797-1.635-1.596-3.271-2.395-4.904
			c-0.473-0.969-0.947-1.938-1.42-2.908c-0.367-0.752-0.23-0.936-1.041-0.643c-7.271,2.625-14.391,5.65-21.355,9
			c-16.807,8.078-33.146,17.945-47.26,30.191c-14.645,12.705-27.652,27.381-36.572,44.721c-8.945,17.389-13.645,36.518-13.91,56.063
			c-0.137,9.852,1.145,19.521,2.938,29.182c1.82,9.793,5.123,19.125,8.518,28.455c2.318,6.734,5.961,12.953,8.506,19.604
			c1.654,4.33,2.861,8.684,3.896,13.186c0.953,4.15,1.131,8.771,0.643,12.994c-0.48,4.143-1.887,7.736-3.98,11.304
			c-2.197,3.748-5.549,6.988-8.752,9.88c-3.389,3.057-7.027,5.823-10.812,8.368c-15.818,10.644-33.795,17.976-51.812,24.004
			c5.033,15.63,7.764,32.279,7.764,49.562c0,8.805-0.717,17.445-2.074,25.875c-0.383,2.666-1.467,8.416-2.543,12.559
			c-13.025,53.328-52.518,96.388-103.712,114.417l-0.705,1.452c6.834-2.463,13.628-5.036,20.391-7.647
			c18.019-6.959,35.824-14.48,53.357-22.588c35.634-16.474,70.358-35.328,102.296-58.234c30.529-22.016,59.324-48.219,78.301-81.115
			c9.527-16.516,16.473-34.783,19.076-53.727c2.658-19.359,0.834-39.191-5.188-57.773c-3.971-12.25-9.643-24.102-16.756-34.852
			c-3.16-4.773-6.484-9.369-9.949-13.918c-1.967-2.582-4.129-5.012-6.262-7.457c-3.205-3.674-5.84-7.857-8.461-11.953
			c-4.441-6.938-7.705-14.865-9.32-22.943c-1.992-9.973-1.285-19.959,1.338-29.742c5.037-18.758,16.885-35.438,29.936-49.518
			c8.021-8.654,16.818-16.625,26.174-23.816c1.865-1.436,3.754-2.842,5.676-4.201C491.688,20.402,491.529,20.607,490.779,19.074z
			 M427.412,300.41c-8.387,12.726-18.254,23.931-29.762,33.943c-10.844,9.438-22.643,17.576-34.789,25.223
			c-3.592-6.115-7.182-12.229-10.771-18.344c15.225-8.719,30.033-18.303,42.881-30.338c6.33-5.93,11.949-12.383,17.027-19.408
			c0.287-0.397,1.117-1.605,1.117-1.605s1.348,0.888,1.924,1.253c2.02,1.278,4.041,2.561,6.061,3.84
			c1.725,1.094,3.449,2.186,5.176,3.278c0.488,0.312,1.771,1.137,1.771,1.137S427.416,300.404,427.412,300.41z M427.418,199.345
			c-0.121-0.217-0.18-0.326,0.092,0.158c0.256,0.461,0.215,0.393,0.107,0.199c8.678,15.752,14.637,33.172,14.564,51.32
			c-5.248-0.1-10.494-0.199-15.74-0.299c0.658-13.469-2.85-26.855-8.238-39.109c-2.982-6.787-6.768-13.166-10.445-19.588
			c-3.176-5.543-5.941-11.195-8.627-16.988c2.039-0.92,4.08-1.84,6.119-2.758c1.309-0.592,4.91-2.292,4.91-2.292
			s5.307,9.899,8.072,14.358C421.322,189.333,424.537,194.236,427.418,199.345z M431.008,55.14
			C421.881,65.652,413.711,76.783,408,89.56c-5.346,11.957-8.379,24.939-8.168,38.059c-3.402-0.049-6.807-0.098-10.211-0.146
			c0.506-17.469,6.057-34.398,14.984-49.367c4.535-7.605,9.904-14.607,15.695-21.293c1.395-1.611,2.891-3.135,4.355-4.682
			c0.527-0.557,2.143-2.352,2.143-2.352s3.309,3.205,4.787,4.619c0.018,0.018,0.035,0.035,0.053,0.051
			C431.418,54.669,431.209,54.902,431.008,55.14z"/>
		<path d="M303.613,346.644c0-81.057-65.944-147-147-147c-81.056,0-147,65.943-147,147c0,81.055,65.944,147,147,147
			C237.669,493.644,303.613,427.699,303.613,346.644z M156.613,456.429c-60.535,0-109.785-49.25-109.785-109.785
			c0-60.537,49.25-109.785,109.785-109.785c60.535,0,109.785,49.248,109.785,109.785
			C266.398,407.179,217.148,456.429,156.613,456.429z"/>
		<polygon points="170.103,333.154 170.103,263.839 143.122,263.839 143.122,360.134 242.207,360.134 242.207,333.154 		"/>
	</g>
</g>
<g>
</g>
<g>
</g>
<g>
</g>
<g>
</g>
<g>
</g>
<g>
</g>
<g>
</g>
<g>
</g>
<g>
</g>
<g>
</g>
<g>
</g>
<g>
</g>
<g>
</g>
<g>
</g>
<g>
</g>
</svg>
